<svg xmlns="http://www.w3.org/2000/svg" version="1.1" xmlns:xlink="http://www.w3.org/1999/xlink" xmlns:svgjs="http://svgjs.dev/svgjs" width="1444" height="563" preserveAspectRatio="none" viewBox="0 0 1444 563"><g mask="url(&quot;#SvgjsMask1047&quot;)" fill="none"><rect width="1444" height="563" x="0" y="0" fill="url(&quot;#SvgjsLinearGradient1048&quot;)"></rect><path d="M-37.99 362.36L-37.99 362.36" stroke="#132e65" stroke-width="1.5"></path><path d="M-37.99 362.36L37.81 338.24" stroke="#132e65" stroke-width="1.5"></path><path d="M-37.99 362.36L-39.71 513.49" stroke="#132e65" stroke-width="1.5"></path><path d="M-37.99 362.36L106.93 505.17" stroke="#132e65" stroke-width="1.5"></path><path d="M-37.99 362.36L222.88 407.56" stroke="#132e65" stroke-width="1.5"></path><path d="M-37.99 362.36L242.32 524.5" stroke="#132e65" stroke-width="1.5"></path><path d="M-39.71 513.49L-39.71 513.49" stroke="#132e65" stroke-width="1.5"></path><path d="M-39.71 513.49L106.93 505.17" stroke="#132e65" stroke-width="1.5"></path><path d="M-39.71 513.49L-41.32 703.17" stroke="#132e65" stroke-width="1.5"></path><path d="M-41.32 703.17L-41.32 703.17" stroke="#132e65" stroke-width="1.5"></path><path d="M-41.32 703.17L46.09 689.52" stroke="#132e65" stroke-width="1.5"></path><path d="M37.81 338.24L37.81 338.24" stroke="#132e65" stroke-width="1.5"></path><path d="M37.81 338.24L106.93 505.17" stroke="#132e65" stroke-width="1.5"></path><path d="M37.81 338.24L-39.71 513.49" stroke="#132e65" stroke-width="1.5"></path><path d="M37.81 338.24L222.88 407.56" stroke="#132e65" stroke-width="1.5"></path><path d="M37.81 338.24L242.32 524.5" stroke="#132e65" stroke-width="1.5"></path><path d="M37.81 338.24L46.09 689.52" stroke="#132e65" stroke-width="1.5"></path><path d="M106.93 505.17L106.93 505.17" stroke="#132e65" stroke-width="1.5"></path><path d="M106.93 505.17L242.32 524.5" stroke="#132e65" stroke-width="1.5"></path><path d="M106.93 505.17L222.88 407.56" stroke="#132e65" stroke-width="1.5"></path><path d="M46.09 689.52L46.09 689.52" stroke="#132e65" stroke-width="1.5"></path><path d="M46.09 689.52L106.93 505.17" stroke="#132e65" stroke-width="1.5"></path><path d="M222.88 407.56L222.88 407.56" stroke="#132e65" stroke-width="1.5"></path><path d="M222.88 407.56L242.32 524.5" stroke="#132e65" stroke-width="1.5"></path><path d="M222.88 407.56L354.34 502.13" stroke="#132e65" stroke-width="1.5"></path><path d="M242.32 524.5L242.32 524.5" stroke="#132e65" stroke-width="1.5"></path><path d="M242.32 524.5L354.34 502.13" stroke="#132e65" stroke-width="1.5"></path><path d="M242.32 524.5L386.67 672.49" stroke="#132e65" stroke-width="1.5"></path><path d="M354.34 502.13L354.34 502.13" stroke="#132e65" stroke-width="1.5"></path><path d="M354.34 502.13L386.67 672.49" stroke="#132e65" stroke-width="1.5"></path><path d="M354.34 502.13L526.4 551.58" stroke="#132e65" stroke-width="1.5"></path><path d="M354.34 502.13L539.96 403.83" stroke="#132e65" stroke-width="1.5"></path><path d="M354.34 502.13L511.28 645.26" stroke="#132e65" stroke-width="1.5"></path><path d="M386.67 672.49L386.67 672.49" stroke="#132e65" stroke-width="1.5"></path><path d="M386.67 672.49L511.28 645.26" stroke="#132e65" stroke-width="1.5"></path><path d="M539.96 403.83L539.96 403.83" stroke="#132e65" stroke-width="1.5"></path><path d="M539.96 403.83L653.8 389" stroke="#132e65" stroke-width="1.5"></path><path d="M539.96 403.83L526.4 551.58" stroke="#132e65" stroke-width="1.5"></path><path d="M539.96 403.83L679.6 252.69" stroke="#132e65" stroke-width="1.5"></path><path d="M539.96 403.83L685.45 559.09" stroke="#132e65" stroke-width="1.5"></path><path d="M526.4 551.58L526.4 551.58" stroke="#132e65" stroke-width="1.5"></path><path d="M526.4 551.58L511.28 645.26" stroke="#132e65" stroke-width="1.5"></path><path d="M526.4 551.58L685.45 559.09" stroke="#132e65" stroke-width="1.5"></path><path d="M511.28 645.26L511.28 645.26" stroke="#132e65" stroke-width="1.5"></path><path d="M679.6 252.69L679.6 252.69" stroke="#132e65" stroke-width="1.5"></path><path d="M679.6 252.69L653.8 389" stroke="#132e65" stroke-width="1.5"></path><path d="M679.6 252.69L847.27 230.54" stroke="#132e65" stroke-width="1.5"></path><path d="M679.6 252.69L787.57 388.99" stroke="#132e65" stroke-width="1.5"></path><path d="M679.6 252.69L859.5 44.54" stroke="#132e65" stroke-width="1.5"></path><path d="M679.6 252.69L813.08 493.48" stroke="#132e65" stroke-width="1.5"></path><path d="M653.8 389L653.8 389" stroke="#132e65" stroke-width="1.5"></path><path d="M653.8 389L787.57 388.99" stroke="#132e65" stroke-width="1.5"></path><path d="M685.45 559.09L685.45 559.09" stroke="#132e65" stroke-width="1.5"></path><path d="M685.45 559.09L668.8 689.98" stroke="#132e65" stroke-width="1.5"></path><path d="M685.45 559.09L813.08 493.48" stroke="#132e65" stroke-width="1.5"></path><path d="M668.8 689.98L668.8 689.98" stroke="#132e65" stroke-width="1.5"></path><path d="M668.8 689.98L511.28 645.26" stroke="#132e65" stroke-width="1.5"></path><path d="M668.8 689.98L839.06 678.06" stroke="#132e65" stroke-width="1.5"></path><path d="M668.8 689.98L526.4 551.58" stroke="#132e65" stroke-width="1.5"></path><path d="M668.8 689.98L813.08 493.48" stroke="#132e65" stroke-width="1.5"></path><path d="M668.8 689.98L386.67 672.49" stroke="#132e65" stroke-width="1.5"></path><path d="M859.5 44.54L859.5 44.54" stroke="#132e65" stroke-width="1.5"></path><path d="M859.5 44.54L1000.86 58.35" stroke="#132e65" stroke-width="1.5"></path><path d="M859.5 44.54L847.27 230.54" stroke="#132e65" stroke-width="1.5"></path><path d="M859.5 44.54L973.34 193.88" stroke="#132e65" stroke-width="1.5"></path><path d="M859.5 44.54L999.81 -90.39" stroke="#132e65" stroke-width="1.5"></path><path d="M859.5 44.54L1158.86 40.17" stroke="#132e65" stroke-width="1.5"></path><path d="M847.27 230.54L847.27 230.54" stroke="#132e65" stroke-width="1.5"></path><path d="M847.27 230.54L973.34 193.88" stroke="#132e65" stroke-width="1.5"></path><path d="M787.57 388.99L787.57 388.99" stroke="#132e65" stroke-width="1.5"></path><path d="M787.57 388.99L813.08 493.48" stroke="#132e65" stroke-width="1.5"></path><path d="M787.57 388.99L847.27 230.54" stroke="#132e65" stroke-width="1.5"></path><path d="M813.08 493.48L813.08 493.48" stroke="#132e65" stroke-width="1.5"></path><path d="M813.08 493.48L839.06 678.06" stroke="#132e65" stroke-width="1.5"></path><path d="M839.06 678.06L839.06 678.06" stroke="#132e65" stroke-width="1.5"></path><path d="M839.06 678.06L972.9 686.44" stroke="#132e65" stroke-width="1.5"></path><path d="M999.81 -90.39L999.81 -90.39" stroke="#132e65" stroke-width="1.5"></path><path d="M999.81 -90.39L1000.86 58.35" stroke="#132e65" stroke-width="1.5"></path><path d="M999.81 -90.39L1162.39 -109.67" stroke="#132e65" stroke-width="1.5"></path><path d="M1000.86 58.35L1000.86 58.35" stroke="#132e65" stroke-width="1.5"></path><path d="M1000.86 58.35L973.34 193.88" stroke="#132e65" stroke-width="1.5"></path><path d="M1000.86 58.35L1158.86 40.17" stroke="#132e65" stroke-width="1.5"></path><path d="M1000.86 58.35L1136.86 188.04" stroke="#132e65" stroke-width="1.5"></path><path d="M1000.86 58.35L847.27 230.54" stroke="#132e65" stroke-width="1.5"></path><path d="M973.34 193.88L973.34 193.88" stroke="#132e65" stroke-width="1.5"></path><path d="M973.34 193.88L1136.86 188.04" stroke="#132e65" stroke-width="1.5"></path><path d="M997.17 401.11L997.17 401.11" stroke="#132e65" stroke-width="1.5"></path><path d="M997.17 401.11L1008.12 491.03" stroke="#132e65" stroke-width="1.5"></path><path d="M997.17 401.11L1154.14 374.85" stroke="#132e65" stroke-width="1.5"></path><path d="M997.17 401.11L1107.73 520.06" stroke="#132e65" stroke-width="1.5"></path><path d="M997.17 401.11L813.08 493.48" stroke="#132e65" stroke-width="1.5"></path><path d="M1008.12 491.03L1008.12 491.03" stroke="#132e65" stroke-width="1.5"></path><path d="M972.9 686.44L972.9 686.44" stroke="#132e65" stroke-width="1.5"></path><path d="M972.9 686.44L1119.22 703.69" stroke="#132e65" stroke-width="1.5"></path><path d="M972.9 686.44L1008.12 491.03" stroke="#132e65" stroke-width="1.5"></path><path d="M1162.39 -109.67L1162.39 -109.67" stroke="#132e65" stroke-width="1.5"></path><path d="M1162.39 -109.67L1283.28 -42.42" stroke="#132e65" stroke-width="1.5"></path><path d="M1162.39 -109.67L1158.86 40.17" stroke="#132e65" stroke-width="1.5"></path><path d="M1158.86 40.17L1158.86 40.17" stroke="#132e65" stroke-width="1.5"></path><path d="M1158.86 40.17L1283.28 -42.42" stroke="#132e65" stroke-width="1.5"></path><path d="M1136.86 188.04L1136.86 188.04" stroke="#132e65" stroke-width="1.5"></path><path d="M1136.86 188.04L1261.95 261.76" stroke="#132e65" stroke-width="1.5"></path><path d="M1136.86 188.04L1158.86 40.17" stroke="#132e65" stroke-width="1.5"></path><path d="M1136.86 188.04L1154.14 374.85" stroke="#132e65" stroke-width="1.5"></path><path d="M1154.14 374.85L1154.14 374.85" stroke="#132e65" stroke-width="1.5"></path><path d="M1154.14 374.85L1275.66 378.9" stroke="#132e65" stroke-width="1.5"></path><path d="M1154.14 374.85L1107.73 520.06" stroke="#132e65" stroke-width="1.5"></path><path d="M1154.14 374.85L1239.34 504.13" stroke="#132e65" stroke-width="1.5"></path><path d="M1107.73 520.06L1107.73 520.06" stroke="#132e65" stroke-width="1.5"></path><path d="M1107.73 520.06L1008.12 491.03" stroke="#132e65" stroke-width="1.5"></path><path d="M1107.73 520.06L1239.34 504.13" stroke="#132e65" stroke-width="1.5"></path><path d="M1119.22 703.69L1119.22 703.69" stroke="#132e65" stroke-width="1.5"></path><path d="M1119.22 703.69L1107.73 520.06" stroke="#132e65" stroke-width="1.5"></path><path d="M1119.22 703.69L1239.34 504.13" stroke="#132e65" stroke-width="1.5"></path><path d="M1283.28 -42.42L1283.28 -42.42" stroke="#132e65" stroke-width="1.5"></path><path d="M1283.28 -42.42L1417.64 -88.11" stroke="#132e65" stroke-width="1.5"></path><path d="M1283.28 -42.42L1434.62 87.42" stroke="#132e65" stroke-width="1.5"></path><path d="M1261.95 261.76L1261.95 261.76" stroke="#132e65" stroke-width="1.5"></path><path d="M1261.95 261.76L1275.66 378.9" stroke="#132e65" stroke-width="1.5"></path><path d="M1261.95 261.76L1399.51 201.69" stroke="#132e65" stroke-width="1.5"></path><path d="M1261.95 261.76L1154.14 374.85" stroke="#132e65" stroke-width="1.5"></path><path d="M1261.95 261.76L1239.34 504.13" stroke="#132e65" stroke-width="1.5"></path><path d="M1261.95 261.76L1158.86 40.17" stroke="#132e65" stroke-width="1.5"></path><path d="M1275.66 378.9L1275.66 378.9" stroke="#132e65" stroke-width="1.5"></path><path d="M1239.34 504.13L1239.34 504.13" stroke="#132e65" stroke-width="1.5"></path><path d="M1239.34 504.13L1275.66 378.9" stroke="#132e65" stroke-width="1.5"></path><path d="M1417.64 -88.11L1417.64 -88.11" stroke="#132e65" stroke-width="1.5"></path><path d="M1417.64 -88.11L1434.62 87.42" stroke="#132e65" stroke-width="1.5"></path><path d="M1434.62 87.42L1434.62 87.42" stroke="#132e65" stroke-width="1.5"></path><path d="M1434.62 87.42L1539.84 50.72" stroke="#132e65" stroke-width="1.5"></path><path d="M1434.62 87.42L1399.51 201.69" stroke="#132e65" stroke-width="1.5"></path><path d="M1434.62 87.42L1538.52 205.04" stroke="#132e65" stroke-width="1.5"></path><path d="M1399.51 201.69L1399.51 201.69" stroke="#132e65" stroke-width="1.5"></path><path d="M1399.51 201.69L1538.52 205.04" stroke="#132e65" stroke-width="1.5"></path><path d="M1399.51 201.69L1539.84 50.72" stroke="#132e65" stroke-width="1.5"></path><path d="M1399.51 201.69L1275.66 378.9" stroke="#132e65" stroke-width="1.5"></path><path d="M1431.81 538.63L1431.81 538.63" stroke="#132e65" stroke-width="1.5"></path><path d="M1431.81 538.63L1549.51 559.48" stroke="#132e65" stroke-width="1.5"></path><path d="M1431.81 538.63L1446.59 697.05" stroke="#132e65" stroke-width="1.5"></path><path d="M1431.81 538.63L1584.54 644.35" stroke="#132e65" stroke-width="1.5"></path><path d="M1431.81 538.63L1239.34 504.13" stroke="#132e65" stroke-width="1.5"></path><path d="M1446.59 697.05L1446.59 697.05" stroke="#132e65" stroke-width="1.5"></path><path d="M1446.59 697.05L1584.54 644.35" stroke="#132e65" stroke-width="1.5"></path><path d="M1604.44 -86.01L1604.44 -86.01" stroke="#132e65" stroke-width="1.5"></path><path d="M1604.44 -86.01L1539.84 50.72" stroke="#132e65" stroke-width="1.5"></path><path d="M1604.44 -86.01L1417.64 -88.11" stroke="#132e65" stroke-width="1.5"></path><path d="M1604.44 -86.01L1434.62 87.42" stroke="#132e65" stroke-width="1.5"></path><path d="M1604.44 -86.01L1538.52 205.04" stroke="#132e65" stroke-width="1.5"></path><path d="M1539.84 50.72L1539.84 50.72" stroke="#132e65" stroke-width="1.5"></path><path d="M1539.84 50.72L1538.52 205.04" stroke="#132e65" stroke-width="1.5"></path><path d="M1539.84 50.72L1417.64 -88.11" stroke="#132e65" stroke-width="1.5"></path><path d="M1538.52 205.04L1538.52 205.04" stroke="#132e65" stroke-width="1.5"></path><path d="M1549.51 559.48L1549.51 559.48" stroke="#132e65" stroke-width="1.5"></path><path d="M1549.51 559.48L1584.54 644.35" stroke="#132e65" stroke-width="1.5"></path><path d="M1549.51 559.48L1446.59 697.05" stroke="#132e65" stroke-width="1.5"></path><path d="M1549.51 559.48L1239.34 504.13" stroke="#132e65" stroke-width="1.5"></path><path d="M1584.54 644.35L1584.54 644.35" stroke="#132e65" stroke-width="1.5"></path><path d="M1584.54 644.35L1239.34 504.13" stroke="#132e65" stroke-width="1.5"></path><circle r="5" cx="-37.99" cy="362.36" fill="#132e65"></circle><circle r="5" cx="-39.71" cy="513.49" fill="#132e65"></circle><circle r="5" cx="-41.32" cy="703.17" fill="#132e65"></circle><circle r="5" cx="37.81" cy="338.24" fill="#132e65"></circle><circle r="5" cx="106.93" cy="505.17" fill="#132e65"></circle><circle r="5" cx="46.09" cy="689.52" fill="#132e65"></circle><circle r="5" cx="222.88" cy="407.56" fill="#132e65"></circle><circle r="5" cx="242.32" cy="524.5" fill="#132e65"></circle><circle r="5" cx="354.34" cy="502.13" fill="#132e65"></circle><circle r="5" cx="386.67" cy="672.49" fill="#132e65"></circle><circle r="5" cx="539.96" cy="403.83" fill="#132e65"></circle><circle r="5" cx="526.4" cy="551.58" fill="#132e65"></circle><circle r="5" cx="511.28" cy="645.26" fill="#132e65"></circle><circle r="5" cx="679.6" cy="252.69" fill="#132e65"></circle><circle r="5" cx="653.8" cy="389" fill="#132e65"></circle><circle r="5" cx="685.45" cy="559.09" fill="#132e65"></circle><circle r="5" cx="668.8" cy="689.98" fill="#132e65"></circle><circle r="5" cx="859.5" cy="44.54" fill="#132e65"></circle><circle r="5" cx="847.27" cy="230.54" fill="#132e65"></circle><circle r="5" cx="787.57" cy="388.99" fill="#132e65"></circle><circle r="5" cx="813.08" cy="493.48" fill="#132e65"></circle><circle r="5" cx="839.06" cy="678.06" fill="#132e65"></circle><circle r="5" cx="999.81" cy="-90.39" fill="#132e65"></circle><circle r="5" cx="1000.86" cy="58.35" fill="#132e65"></circle><circle r="5" cx="973.34" cy="193.88" fill="#132e65"></circle><circle r="5" cx="997.17" cy="401.11" fill="#132e65"></circle><circle r="5" cx="1008.12" cy="491.03" fill="#132e65"></circle><circle r="5" cx="972.9" cy="686.44" fill="#132e65"></circle><circle r="5" cx="1162.39" cy="-109.67" fill="#132e65"></circle><circle r="5" cx="1158.86" cy="40.17" fill="#132e65"></circle><circle r="5" cx="1136.86" cy="188.04" fill="#132e65"></circle><circle r="5" cx="1154.14" cy="374.85" fill="#132e65"></circle><circle r="5" cx="1107.73" cy="520.06" fill="#132e65"></circle><circle r="5" cx="1119.22" cy="703.69" fill="#132e65"></circle><circle r="5" cx="1283.28" cy="-42.42" fill="#132e65"></circle><circle r="5" cx="1261.95" cy="261.76" fill="#132e65"></circle><circle r="5" cx="1275.66" cy="378.9" fill="#132e65"></circle><circle r="5" cx="1239.34" cy="504.13" fill="#132e65"></circle><circle r="5" cx="1417.64" cy="-88.11" fill="#132e65"></circle><circle r="5" cx="1434.62" cy="87.42" fill="#132e65"></circle><circle r="5" cx="1399.51" cy="201.69" fill="#132e65"></circle><circle r="5" cx="1431.81" cy="538.63" fill="#132e65"></circle><circle r="5" cx="1446.59" cy="697.05" fill="#132e65"></circle><circle r="5" cx="1604.44" cy="-86.01" fill="#132e65"></circle><circle r="5" cx="1539.84" cy="50.72" fill="#132e65"></circle><circle r="5" cx="1538.52" cy="205.04" fill="#132e65"></circle><circle r="5" cx="1549.51" cy="559.48" fill="#132e65"></circle><circle r="5" cx="1584.54" cy="644.35" fill="#132e65"></circle><path d="M-46.98 549.83L-46.98 549.83" stroke="hsl(228.5, 77.2%, 51.5%)" stroke-width="1.5"></path><path d="M-46.98 549.83L50.33 641" stroke="hsl(228.5, 77.2%, 51.5%)" stroke-width="1.5"></path><path d="M-46.98 549.83L-99.87 684" stroke="hsl(228.5, 77.2%, 51.5%)" stroke-width="1.5"></path><path d="M-46.98 549.83L95.38 526.27" stroke="hsl(228.5, 77.2%, 51.5%)" stroke-width="1.5"></path><path d="M-46.98 549.83L192.64 504.88" stroke="hsl(228.5, 77.2%, 51.5%)" stroke-width="1.5"></path><path d="M-46.98 549.83L257.61 710.34" stroke="hsl(228.5, 77.2%, 51.5%)" stroke-width="1.5"></path><path d="M-46.98 549.83L349.98 558.05" stroke="hsl(228.5, 77.2%, 51.5%)" stroke-width="1.5"></path><path d="M-99.87 684L-99.87 684" stroke="hsl(228.5, 77.2%, 51.5%)" stroke-width="1.5"></path><path d="M-99.87 684L50.33 641" stroke="hsl(228.5, 77.2%, 51.5%)" stroke-width="1.5"></path><path d="M-99.87 684L95.38 526.27" stroke="hsl(228.5, 77.2%, 51.5%)" stroke-width="1.5"></path><path d="M-99.87 684L192.64 504.88" stroke="hsl(228.5, 77.2%, 51.5%)" stroke-width="1.5"></path><path d="M-99.87 684L257.61 710.34" stroke="hsl(228.5, 77.2%, 51.5%)" stroke-width="1.5"></path><path d="M-99.87 684L350.89 677.04" stroke="hsl(228.5, 77.2%, 51.5%)" stroke-width="1.5"></path><path d="M95.38 526.27L95.38 526.27" stroke="hsl(228.5, 77.2%, 51.5%)" stroke-width="1.5"></path><path d="M95.38 526.27L192.64 504.88" stroke="hsl(228.5, 77.2%, 51.5%)" stroke-width="1.5"></path><path d="M95.38 526.27L50.33 641" stroke="hsl(228.5, 77.2%, 51.5%)" stroke-width="1.5"></path><path d="M95.38 526.27L257.61 710.34" stroke="hsl(228.5, 77.2%, 51.5%)" stroke-width="1.5"></path><path d="M95.38 526.27L349.98 558.05" stroke="hsl(228.5, 77.2%, 51.5%)" stroke-width="1.5"></path><path d="M50.33 641L50.33 641" stroke="hsl(228.5, 77.2%, 51.5%)" stroke-width="1.5"></path><path d="M50.33 641L192.64 504.88" stroke="hsl(228.5, 77.2%, 51.5%)" stroke-width="1.5"></path><path d="M192.64 504.88L192.64 504.88" stroke="hsl(228.5, 77.2%, 51.5%)" stroke-width="1.5"></path><path d="M192.64 504.88L349.98 558.05" stroke="hsl(228.5, 77.2%, 51.5%)" stroke-width="1.5"></path><path d="M192.64 504.88L257.61 710.34" stroke="hsl(228.5, 77.2%, 51.5%)" stroke-width="1.5"></path><path d="M192.64 504.88L350.89 677.04" stroke="hsl(228.5, 77.2%, 51.5%)" stroke-width="1.5"></path><path d="M257.61 710.34L257.61 710.34" stroke="hsl(228.5, 77.2%, 51.5%)" stroke-width="1.5"></path><path d="M257.61 710.34L350.89 677.04" stroke="hsl(228.5, 77.2%, 51.5%)" stroke-width="1.5"></path><path d="M257.61 710.34L349.98 558.05" stroke="hsl(228.5, 77.2%, 51.5%)" stroke-width="1.5"></path><path d="M257.61 710.34L50.33 641" stroke="hsl(228.5, 77.2%, 51.5%)" stroke-width="1.5"></path><path d="M792.29 516.1L792.29 516.1" stroke="hsl(228.5, 77.2%, 51.5%)" stroke-width="1.5"></path><path d="M792.29 516.1L700.07 559.85" stroke="hsl(228.5, 77.2%, 51.5%)" stroke-width="1.5"></path><path d="M792.29 516.1L815.93 368.66" stroke="hsl(228.5, 77.2%, 51.5%)" stroke-width="1.5"></path><path d="M792.29 516.1L824.54 676.7" stroke="hsl(228.5, 77.2%, 51.5%)" stroke-width="1.5"></path><path d="M1088.06 364.69L1088.06 364.69" stroke="hsl(228.5, 77.2%, 51.5%)" stroke-width="1.5"></path><path d="M1088.06 364.69L979.49 346.58" stroke="hsl(228.5, 77.2%, 51.5%)" stroke-width="1.5"></path><path d="M1088.06 364.69L1251.81 360.35" stroke="hsl(228.5, 77.2%, 51.5%)" stroke-width="1.5"></path><path d="M1288.32 37.8L1288.32 37.8" stroke="hsl(228.5, 77.2%, 51.5%)" stroke-width="1.5"></path><path d="M1288.32 37.8L1293.44 -74.33" stroke="hsl(228.5, 77.2%, 51.5%)" stroke-width="1.5"></path><path d="M1288.32 37.8L1441.97 42.28" stroke="hsl(228.5, 77.2%, 51.5%)" stroke-width="1.5"></path><path d="M1288.32 37.8L1264.03 203.88" stroke="hsl(228.5, 77.2%, 51.5%)" stroke-width="1.5"></path><path d="M1570.65 237.7L1570.65 237.7" stroke="hsl(228.5, 77.2%, 51.5%)" stroke-width="1.5"></path><path d="M1570.65 237.7L1570.53 369.09" stroke="hsl(228.5, 77.2%, 51.5%)" stroke-width="1.5"></path><path d="M1570.65 237.7L1453.23 356.19" stroke="hsl(228.5, 77.2%, 51.5%)" stroke-width="1.5"></path><path d="M1570.65 237.7L1388.62 190.35" stroke="hsl(228.5, 77.2%, 51.5%)" stroke-width="1.5"></path><path d="M1570.65 237.7L1441.97 42.28" stroke="hsl(228.5, 77.2%, 51.5%)" stroke-width="1.5"></path><path d="M349.98 558.05L349.98 558.05" stroke="hsl(228.5, 77.2%, 51.5%)" stroke-width="1.5"></path><path d="M349.98 558.05L350.89 677.04" stroke="hsl(228.5, 77.2%, 51.5%)" stroke-width="1.5"></path><path d="M349.98 558.05L517.21 558.15" stroke="hsl(228.5, 77.2%, 51.5%)" stroke-width="1.5"></path><path d="M349.98 558.05L50.33 641" stroke="hsl(228.5, 77.2%, 51.5%)" stroke-width="1.5"></path><path d="M350.89 677.04L350.89 677.04" stroke="hsl(228.5, 77.2%, 51.5%)" stroke-width="1.5"></path><path d="M350.89 677.04L517.21 558.15" stroke="hsl(228.5, 77.2%, 51.5%)" stroke-width="1.5"></path><path d="M517.21 558.15L517.21 558.15" stroke="hsl(228.5, 77.2%, 51.5%)" stroke-width="1.5"></path><path d="M517.21 558.15L700.07 559.85" stroke="hsl(228.5, 77.2%, 51.5%)" stroke-width="1.5"></path><path d="M517.21 558.15L648.24 697.85" stroke="hsl(228.5, 77.2%, 51.5%)" stroke-width="1.5"></path><path d="M700.07 559.85L700.07 559.85" stroke="hsl(228.5, 77.2%, 51.5%)" stroke-width="1.5"></path><path d="M700.07 559.85L648.24 697.85" stroke="hsl(228.5, 77.2%, 51.5%)" stroke-width="1.5"></path><path d="M700.07 559.85L824.54 676.7" stroke="hsl(228.5, 77.2%, 51.5%)" stroke-width="1.5"></path><path d="M648.24 697.85L648.24 697.85" stroke="hsl(228.5, 77.2%, 51.5%)" stroke-width="1.5"></path><path d="M648.24 697.85L824.54 676.7" stroke="hsl(228.5, 77.2%, 51.5%)" stroke-width="1.5"></path><path d="M815.93 368.66L815.93 368.66" stroke="hsl(228.5, 77.2%, 51.5%)" stroke-width="1.5"></path><path d="M815.93 368.66L979.49 346.58" stroke="hsl(228.5, 77.2%, 51.5%)" stroke-width="1.5"></path><path d="M815.93 368.66L700.07 559.85" stroke="hsl(228.5, 77.2%, 51.5%)" stroke-width="1.5"></path><path d="M815.93 368.66L1003.53 526.72" stroke="hsl(228.5, 77.2%, 51.5%)" stroke-width="1.5"></path><path d="M824.54 676.7L824.54 676.7" stroke="hsl(228.5, 77.2%, 51.5%)" stroke-width="1.5"></path><path d="M824.54 676.7L982.29 703.41" stroke="hsl(228.5, 77.2%, 51.5%)" stroke-width="1.5"></path><path d="M824.54 676.7L1003.53 526.72" stroke="hsl(228.5, 77.2%, 51.5%)" stroke-width="1.5"></path><path d="M979.49 346.58L979.49 346.58" stroke="hsl(228.5, 77.2%, 51.5%)" stroke-width="1.5"></path><path d="M1003.53 526.72L1003.53 526.72" stroke="hsl(228.5, 77.2%, 51.5%)" stroke-width="1.5"></path><path d="M1003.53 526.72L982.29 703.41" stroke="hsl(228.5, 77.2%, 51.5%)" stroke-width="1.5"></path><path d="M1003.53 526.72L979.49 346.58" stroke="hsl(228.5, 77.2%, 51.5%)" stroke-width="1.5"></path><path d="M982.29 703.41L982.29 703.41" stroke="hsl(228.5, 77.2%, 51.5%)" stroke-width="1.5"></path><path d="M982.29 703.41L1109.73 695.1" stroke="hsl(228.5, 77.2%, 51.5%)" stroke-width="1.5"></path><path d="M982.29 703.41L792.29 516.1" stroke="hsl(228.5, 77.2%, 51.5%)" stroke-width="1.5"></path><path d="M1139.14 188.32L1139.14 188.32" stroke="hsl(228.5, 77.2%, 51.5%)" stroke-width="1.5"></path><path d="M1139.14 188.32L1264.03 203.88" stroke="hsl(228.5, 77.2%, 51.5%)" stroke-width="1.5"></path><path d="M1139.14 188.32L1088.06 364.69" stroke="hsl(228.5, 77.2%, 51.5%)" stroke-width="1.5"></path><path d="M1109.73 695.1L1109.73 695.1" stroke="hsl(228.5, 77.2%, 51.5%)" stroke-width="1.5"></path><path d="M1109.73 695.1L1278.93 654.66" stroke="hsl(228.5, 77.2%, 51.5%)" stroke-width="1.5"></path><path d="M1109.73 695.1L1003.53 526.72" stroke="hsl(228.5, 77.2%, 51.5%)" stroke-width="1.5"></path><path d="M1109.73 695.1L1248.27 500.24" stroke="hsl(228.5, 77.2%, 51.5%)" stroke-width="1.5"></path><path d="M1293.44 -74.33L1293.44 -74.33" stroke="hsl(228.5, 77.2%, 51.5%)" stroke-width="1.5"></path><path d="M1293.44 -74.33L1441.97 42.28" stroke="hsl(228.5, 77.2%, 51.5%)" stroke-width="1.5"></path><path d="M1293.44 -74.33L1542.11 -79.28" stroke="hsl(228.5, 77.2%, 51.5%)" stroke-width="1.5"></path><path d="M1293.44 -74.33L1264.03 203.88" stroke="hsl(228.5, 77.2%, 51.5%)" stroke-width="1.5"></path><path d="M1293.44 -74.33L1388.62 190.35" stroke="hsl(228.5, 77.2%, 51.5%)" stroke-width="1.5"></path><path d="M1264.03 203.88L1264.03 203.88" stroke="hsl(228.5, 77.2%, 51.5%)" stroke-width="1.5"></path><path d="M1264.03 203.88L1388.62 190.35" stroke="hsl(228.5, 77.2%, 51.5%)" stroke-width="1.5"></path><path d="M1264.03 203.88L1251.81 360.35" stroke="hsl(228.5, 77.2%, 51.5%)" stroke-width="1.5"></path><path d="M1264.03 203.88L1088.06 364.69" stroke="hsl(228.5, 77.2%, 51.5%)" stroke-width="1.5"></path><path d="M1251.81 360.35L1251.81 360.35" stroke="hsl(228.5, 77.2%, 51.5%)" stroke-width="1.5"></path><path d="M1251.81 360.35L1248.27 500.24" stroke="hsl(228.5, 77.2%, 51.5%)" stroke-width="1.5"></path><path d="M1248.27 500.24L1248.27 500.24" stroke="hsl(228.5, 77.2%, 51.5%)" stroke-width="1.5"></path><path d="M1248.27 500.24L1278.93 654.66" stroke="hsl(228.5, 77.2%, 51.5%)" stroke-width="1.5"></path><path d="M1248.27 500.24L1441.43 511.58" stroke="hsl(228.5, 77.2%, 51.5%)" stroke-width="1.5"></path><path d="M1278.93 654.66L1278.93 654.66" stroke="hsl(228.5, 77.2%, 51.5%)" stroke-width="1.5"></path><path d="M1278.93 654.66L1434.15 679.79" stroke="hsl(228.5, 77.2%, 51.5%)" stroke-width="1.5"></path><path d="M1278.93 654.66L1441.43 511.58" stroke="hsl(228.5, 77.2%, 51.5%)" stroke-width="1.5"></path><path d="M1278.93 654.66L1547.09 663.42" stroke="hsl(228.5, 77.2%, 51.5%)" stroke-width="1.5"></path><path d="M1441.97 42.28L1441.97 42.28" stroke="hsl(228.5, 77.2%, 51.5%)" stroke-width="1.5"></path><path d="M1441.97 42.28L1388.62 190.35" stroke="hsl(228.5, 77.2%, 51.5%)" stroke-width="1.5"></path><path d="M1441.97 42.28L1542.11 -79.28" stroke="hsl(228.5, 77.2%, 51.5%)" stroke-width="1.5"></path><path d="M1388.62 190.35L1388.62 190.35" stroke="hsl(228.5, 77.2%, 51.5%)" stroke-width="1.5"></path><path d="M1453.23 356.19L1453.23 356.19" stroke="hsl(228.5, 77.2%, 51.5%)" stroke-width="1.5"></path><path d="M1453.23 356.19L1570.53 369.09" stroke="hsl(228.5, 77.2%, 51.5%)" stroke-width="1.5"></path><path d="M1453.23 356.19L1441.43 511.58" stroke="hsl(228.5, 77.2%, 51.5%)" stroke-width="1.5"></path><path d="M1441.43 511.58L1441.43 511.58" stroke="hsl(228.5, 77.2%, 51.5%)" stroke-width="1.5"></path><path d="M1441.43 511.58L1560.37 544.89" stroke="hsl(228.5, 77.2%, 51.5%)" stroke-width="1.5"></path><path d="M1441.43 511.58L1434.15 679.79" stroke="hsl(228.5, 77.2%, 51.5%)" stroke-width="1.5"></path><path d="M1441.43 511.58L1547.09 663.42" stroke="hsl(228.5, 77.2%, 51.5%)" stroke-width="1.5"></path><path d="M1434.15 679.79L1434.15 679.79" stroke="hsl(228.5, 77.2%, 51.5%)" stroke-width="1.5"></path><path d="M1434.15 679.79L1547.09 663.42" stroke="hsl(228.5, 77.2%, 51.5%)" stroke-width="1.5"></path><path d="M1542.11 -79.28L1542.11 -79.28" stroke="hsl(228.5, 77.2%, 51.5%)" stroke-width="1.5"></path><path d="M1542.11 -79.28L1288.32 37.8" stroke="hsl(228.5, 77.2%, 51.5%)" stroke-width="1.5"></path><path d="M1542.11 -79.28L1388.62 190.35" stroke="hsl(228.5, 77.2%, 51.5%)" stroke-width="1.5"></path><path d="M1570.53 369.09L1570.53 369.09" stroke="hsl(228.5, 77.2%, 51.5%)" stroke-width="1.5"></path><path d="M1560.37 544.89L1560.37 544.89" stroke="hsl(228.5, 77.2%, 51.5%)" stroke-width="1.5"></path><path d="M1560.37 544.89L1547.09 663.42" stroke="hsl(228.5, 77.2%, 51.5%)" stroke-width="1.5"></path><path d="M1560.37 544.89L1570.53 369.09" stroke="hsl(228.5, 77.2%, 51.5%)" stroke-width="1.5"></path><path d="M1560.37 544.89L1434.15 679.79" stroke="hsl(228.5, 77.2%, 51.5%)" stroke-width="1.5"></path><path d="M1547.09 663.42L1547.09 663.42" stroke="hsl(228.5, 77.2%, 51.5%)" stroke-width="1.5"></path><circle r="25" cx="-46.98" cy="549.83" fill="url(&quot;#SvgjsRadialGradient1049&quot;)"></circle><circle r="25" cx="-99.87" cy="684" fill="url(&quot;#SvgjsRadialGradient1049&quot;)"></circle><circle r="25" cx="95.38" cy="526.27" fill="url(&quot;#SvgjsRadialGradient1049&quot;)"></circle><circle r="25" cx="50.33" cy="641" fill="url(&quot;#SvgjsRadialGradient1049&quot;)"></circle><circle r="25" cx="192.64" cy="504.88" fill="url(&quot;#SvgjsRadialGradient1049&quot;)"></circle><circle r="25" cx="257.61" cy="710.34" fill="url(&quot;#SvgjsRadialGradient1049&quot;)"></circle><circle r="25" cx="792.29" cy="516.1" fill="url(&quot;#SvgjsRadialGradient1049&quot;)"></circle><circle r="25" cx="1088.06" cy="364.69" fill="url(&quot;#SvgjsRadialGradient1049&quot;)"></circle><circle r="25" cx="1288.32" cy="37.8" fill="url(&quot;#SvgjsRadialGradient1049&quot;)"></circle><circle r="25" cx="1570.65" cy="237.7" fill="url(&quot;#SvgjsRadialGradient1049&quot;)"></circle><circle r="5" cx="349.98" cy="558.05" fill="#8b9ad9"></circle><circle r="5" cx="350.89" cy="677.04" fill="#8b9ad9"></circle><circle r="5" cx="517.21" cy="558.15" fill="#8b9ad9"></circle><circle r="5" cx="700.07" cy="559.85" fill="#8b9ad9"></circle><circle r="5" cx="648.24" cy="697.85" fill="#8b9ad9"></circle><circle r="5" cx="815.93" cy="368.66" fill="#8b9ad9"></circle><circle r="5" cx="824.54" cy="676.7" fill="#8b9ad9"></circle><circle r="5" cx="979.49" cy="346.58" fill="#8b9ad9"></circle><circle r="5" cx="1003.53" cy="526.72" fill="#8b9ad9"></circle><circle r="5" cx="982.29" cy="703.41" fill="#8b9ad9"></circle><circle r="5" cx="1139.14" cy="188.32" fill="#8b9ad9"></circle><circle r="5" cx="1109.73" cy="695.1" fill="#8b9ad9"></circle><circle r="5" cx="1293.44" cy="-74.33" fill="#8b9ad9"></circle><circle r="5" cx="1264.03" cy="203.88" fill="#8b9ad9"></circle><circle r="5" cx="1251.81" cy="360.35" fill="#8b9ad9"></circle><circle r="5" cx="1248.27" cy="500.24" fill="#8b9ad9"></circle><circle r="5" cx="1278.93" cy="654.66" fill="#8b9ad9"></circle><circle r="5" cx="1441.97" cy="42.28" fill="#8b9ad9"></circle><circle r="5" cx="1388.62" cy="190.35" fill="#8b9ad9"></circle><circle r="5" cx="1453.23" cy="356.19" fill="#8b9ad9"></circle><circle r="5" cx="1441.43" cy="511.58" fill="#8b9ad9"></circle><circle r="5" cx="1434.15" cy="679.79" fill="#8b9ad9"></circle><circle r="5" cx="1542.11" cy="-79.28" fill="#8b9ad9"></circle><circle r="5" cx="1570.53" cy="369.09" fill="#8b9ad9"></circle><circle r="5" cx="1560.37" cy="544.89" fill="#8b9ad9"></circle><circle r="5" cx="1547.09" cy="663.42" fill="#8b9ad9"></circle></g><defs><mask id="SvgjsMask1047"><rect width="1444" height="563" fill="#ffffff"></rect></mask><linearGradient x1="50%" y1="0%" x2="50%" y2="100%" gradientUnits="userSpaceOnUse" id="SvgjsLinearGradient1048"><stop stop-color="#0e2a47" offset="0"></stop><stop stop-color="rgba(142, 173, 214, 1)" offset="1"></stop></linearGradient><radialGradient id="SvgjsRadialGradient1049"><stop stop-color="#ffffff" offset="0.1"></stop><stop stop-color="#1735b3" offset="0.2"></stop><stop stop-color="rgba(23, 53, 179, 0)" offset="1"></stop></radialGradient></defs></svg>